<svg width="216" height="64" viewBox="0 0 216 64" fill="none" xmlns="http://www.w3.org/2000/svg">
<g clip-path="url(#clip0_1_4899)">
<mask id="mask0_1_4899" style="mask-type:luminance" maskUnits="userSpaceOnUse" x="0" y="0" width="64" height="64">
<path d="M63.833 0.10791H0.126343V63.8926H63.833V0.10791Z" fill="white"/>
</mask>
<g mask="url(#mask0_1_4899)">
<path d="M31.0302 0.128906C40.4682 0.143844 48.6128 3.47841 54.7135 9.72491C60.3772 15.5259 63.812 23.4401 63.7575 32.1452C63.6487 49.5332 49.5816 63.8706 31.7735 63.7634C14.1628 63.6571 0.148272 49.3259 0.205313 31.8201C0.232517 23.4656 3.51192 15.2975 9.76009 9.22406C15.9389 3.2192 23.3885 0.251042 31.0302 0.128906Z" fill="#6B2975"/>
</g>
<path d="M38.384 11.8778C38.5911 11.6599 38.7921 11.4341 39.015 11.2294C39.7583 10.5458 40.5858 10.0001 41.5511 9.68554C42.9526 9.22863 44.3057 9.3824 45.6308 9.99923C46.1977 10.2628 46.6383 10.6697 47.049 11.1187C47.8905 12.0378 48.5136 13.0843 48.8427 14.2924C49.2113 15.6465 49.1437 16.9926 48.726 18.3247C48.3732 19.4476 47.8107 20.4634 47.1271 21.415C46.2241 22.6697 45.1535 23.7689 43.9933 24.7847C42.3234 26.2468 40.506 27.5033 38.6271 28.6763C38.4332 28.7976 38.3051 28.7985 38.1085 28.6755C36.4929 27.6676 34.9212 26.5983 33.4487 25.3883C32.1473 24.319 30.9345 23.1609 29.9025 21.8236C29.1417 20.8359 28.5046 19.7789 28.0886 18.5962C27.7446 17.6191 27.5858 16.6148 27.6621 15.5797C27.7446 14.4655 28.0956 13.4348 28.6704 12.4797C29.0881 11.7847 29.6024 11.1679 30.1956 10.6143C30.4755 10.3525 30.7941 10.1565 31.1372 9.99396C31.9797 9.59592 32.8625 9.38064 33.7971 9.42458C34.7317 9.46851 35.5925 9.75759 36.3964 10.2294C37.0861 10.6345 37.6925 11.1397 38.2296 11.732C38.2673 11.7733 38.3051 11.8137 38.3437 11.8541C38.3524 11.8629 38.3656 11.8673 38.384 11.8778Z" fill="#8CC63F"/>
<path d="M33.3978 51.1636C33.3004 51.2514 33.2065 51.3411 33.1082 51.4254C32.5054 51.9403 31.8077 52.2575 31.0319 52.4043C30.0745 52.5853 29.1303 52.5299 28.215 52.1907C27.1005 51.7778 26.3019 51.0037 25.7473 49.9633C25.3612 49.2393 25.1357 48.4625 25.0128 47.6541C24.8557 46.6235 24.8531 45.5901 24.983 44.5577C25.1208 43.4576 25.4235 42.4085 26.0211 41.4639C26.7513 40.3102 27.7675 39.5466 29.1136 39.2681C30.1842 39.0466 31.232 39.1029 32.2254 39.6125C32.5018 39.754 32.7581 39.928 33.0012 40.1213C33.0372 40.1503 33.0635 40.1995 33.1398 40.1942V39.9956C33.1398 38.066 33.1398 36.1365 33.1398 34.206C33.1398 33.8923 33.1732 33.8563 33.49 33.7992C33.7594 33.75 34.0332 33.7509 34.3043 33.743C34.8432 33.7289 35.382 33.7315 35.9199 33.7746C36.0436 33.7843 36.1665 33.801 36.2841 33.844C36.4271 33.8967 36.4675 33.9547 36.4719 34.1059C36.4736 34.1551 36.4719 34.2052 36.4719 34.2544C36.4719 39.1249 36.4719 43.9962 36.4719 48.8667C36.4719 48.9845 36.4763 49.1022 36.4973 49.2191C36.543 49.4695 36.6518 49.582 36.9028 49.6417C37.0002 49.6654 37.0985 49.6654 37.1976 49.6689C37.3679 49.6751 37.4354 49.7269 37.4626 49.8939C37.4837 50.0222 37.4977 50.1531 37.4986 50.2823C37.4995 50.7409 37.5179 51.2005 37.4705 51.6583C37.4644 51.7198 37.4504 51.7804 37.4381 51.841C37.4135 51.9693 37.3363 52.0449 37.2125 52.0871C36.9186 52.1881 36.6176 52.2593 36.3104 52.2988C35.8927 52.3533 35.4724 52.3832 35.052 52.3173C34.3359 52.2066 33.7717 51.8753 33.4373 51.2084C33.4294 51.1934 33.4136 51.1811 33.3978 51.1636Z" fill="white"/>
<path d="M24.0624 19.2129C24.0624 21.3041 24.0624 23.3945 24.0624 25.4857C24.0624 25.7397 24.0405 25.7107 24.2941 25.7115C24.6969 25.7124 25.0997 25.7115 25.5025 25.7115C25.5332 25.7115 25.5648 25.7115 25.5955 25.7115C25.907 25.7159 25.979 25.7853 26.0211 26.0999C26.058 26.3776 26.0562 26.657 26.0527 26.9355C26.0474 27.3757 26.0764 27.8168 26.022 28.2553C26.0185 28.2799 26.0176 28.3045 26.0141 28.3291C25.9728 28.6199 25.8974 28.685 25.6016 28.685C23.0734 28.685 20.5452 28.685 18.017 28.685C17.974 28.685 17.9301 28.6841 17.8871 28.6823C17.7686 28.6779 17.6914 28.6164 17.6519 28.5048C17.6054 28.3748 17.5878 28.2395 17.5834 28.1033C17.5624 27.4952 17.5633 26.8881 17.5826 26.28C17.5861 26.157 17.6036 26.0331 17.6414 25.9145C17.6791 25.7959 17.7519 25.7238 17.8818 25.7194C17.9748 25.7168 18.067 25.7107 18.16 25.7107C18.5751 25.7098 18.9902 25.7107 19.4052 25.7098C19.55 25.7098 19.55 25.7071 19.5527 25.5701C19.5535 25.5393 19.5527 25.5077 19.5527 25.4769C19.5527 21.3015 19.5527 17.1251 19.5518 12.9497C19.5518 12.6913 19.5869 12.7291 19.3228 12.7274C18.877 12.7247 18.4303 12.7274 17.9845 12.7265C17.7379 12.7256 17.6563 12.6536 17.6107 12.4084C17.5773 12.2309 17.5712 12.0508 17.5712 11.8715C17.5703 11.3874 17.5712 10.9032 17.5782 10.42C17.5799 10.2846 17.5984 10.1476 17.6256 10.014C17.6659 9.81807 17.7493 9.75656 17.9485 9.74866C17.9977 9.7469 18.0477 9.74778 18.0977 9.74778H25.5341C25.5648 9.74778 25.5964 9.74778 25.6271 9.74778C25.8965 9.75129 25.9781 9.82071 26.0141 10.0905C26.0404 10.2873 26.0553 10.485 26.0536 10.6836C26.0509 11.1299 26.0509 11.5772 26.0465 12.0235C26.0448 12.1659 26.0299 12.3082 25.9965 12.4471C25.9456 12.6615 25.8658 12.7238 25.6446 12.7238C25.1857 12.7256 24.7276 12.7247 24.2686 12.7247C24.2256 12.7247 24.1818 12.7256 24.1388 12.7256C24.0835 12.7247 24.0615 12.7537 24.0624 12.8064C24.0633 12.8565 24.0624 12.9057 24.0624 12.9558C24.0624 15.0435 24.0624 17.1286 24.0624 19.2129Z" fill="white"/>
<path d="M15.6537 40.6492C15.7467 40.5578 15.8248 40.4805 15.9047 40.4049C16.5927 39.7564 17.4115 39.3654 18.339 39.2178C19.2394 39.0746 20.1327 39.1334 20.9963 39.4392C22.288 39.8961 23.0743 40.8267 23.4455 42.128C23.6166 42.7281 23.6807 43.3449 23.6895 43.9662C23.7246 46.5776 23.6965 49.1899 23.7044 51.8013C23.7053 52.057 23.6482 52.1317 23.3964 52.1835C23.2577 52.2125 23.1147 52.2283 22.9725 52.2345C22.3284 52.2643 21.6851 52.26 21.041 52.2345C20.8743 52.2274 20.7075 52.209 20.5461 52.1615C20.4267 52.1264 20.3556 52.0517 20.3592 51.919C20.3609 51.8637 20.3583 51.8074 20.3583 51.7512C20.3583 49.4368 20.3609 47.1224 20.3556 44.8079C20.3548 44.387 20.332 43.9662 20.2617 43.5488C20.1389 42.8168 19.7159 42.3758 18.9981 42.2123C18.3355 42.0621 17.6835 42.1113 17.0394 42.3213C16.3382 42.5497 15.9819 43.033 15.9389 43.7667C15.9117 44.2315 15.8959 44.6954 15.8951 45.1611C15.8933 47.3517 15.8942 49.5413 15.8942 51.7319C15.8942 51.7749 15.8951 51.8189 15.8942 51.8619C15.8889 52.0412 15.8433 52.1079 15.673 52.1598C15.458 52.2257 15.2343 52.2336 15.0114 52.2415C14.4234 52.2608 13.8346 52.2582 13.2466 52.2336C13.1106 52.2283 12.9746 52.2125 12.8412 52.1879C12.6007 52.1431 12.5551 52.0807 12.5551 51.8382C12.5551 49.6231 12.5542 47.4079 12.5551 45.1928C12.5551 44.1762 12.534 43.1587 12.4989 42.1429C12.4726 41.3749 12.4445 40.607 12.3778 39.8408C12.3585 39.6158 12.4261 39.5183 12.6446 39.4647C12.8684 39.4102 13.0974 39.3962 13.3265 39.3953C13.8714 39.3944 14.4164 39.3663 14.9605 39.4225C14.9973 39.426 15.0351 39.4278 15.071 39.434C15.3589 39.4796 15.4589 39.5658 15.5177 39.8513C15.5721 40.1088 15.6072 40.3671 15.6537 40.6492Z" fill="white"/>
<path d="M48.4531 39.152C49.5193 39.152 50.5452 39.3383 51.514 39.8005C51.8281 39.9507 52.1247 40.1291 52.4038 40.3364C52.5863 40.4726 52.6179 40.5684 52.5504 40.7846C52.4977 40.9515 52.4161 41.1053 52.3275 41.2538C52.1221 41.6 51.9106 41.9427 51.6982 42.2853C51.6333 42.3908 51.5578 42.4892 51.4648 42.5736C51.3297 42.6966 51.2182 42.7133 51.0611 42.621C50.8532 42.4989 50.6461 42.375 50.4284 42.2687C49.8457 41.9848 49.2297 41.8328 48.5829 41.8337C48.1494 41.8346 47.7177 41.8741 47.3114 42.0543C47.1446 42.1281 46.999 42.2291 46.877 42.3653C46.5426 42.7405 46.5839 43.2466 46.9735 43.5629C47.178 43.729 47.4132 43.8388 47.6563 43.9346C48.1407 44.1253 48.6426 44.2606 49.1384 44.4144C49.736 44.5998 50.3275 44.7992 50.8856 45.0866C51.3297 45.315 51.7369 45.5936 52.0747 45.9652C52.5425 46.4784 52.7943 47.0899 52.8557 47.7762C52.9646 49.0002 52.6197 50.0818 51.7948 50.9974C51.2305 51.623 50.5171 52.0052 49.7159 52.2363C49.1472 52.4006 48.5654 52.4753 47.9757 52.4964C47.0025 52.5316 46.0477 52.4191 45.1184 52.1203C44.4181 51.8954 43.7626 51.5791 43.1843 51.1151C42.9622 50.9377 42.9306 50.8348 43.014 50.5669C43.0254 50.5317 43.0368 50.4957 43.0517 50.4623C43.2896 49.943 43.5651 49.4448 43.8837 48.9712C43.9074 48.9352 43.9363 48.9018 43.9644 48.8693C44.1645 48.6408 44.2786 48.625 44.5366 48.7902C45.2526 49.2497 46.0205 49.5836 46.8629 49.726C47.4878 49.8314 48.1091 49.8182 48.7181 49.6214C48.9199 49.5564 49.106 49.4597 49.2709 49.3235C49.736 48.9387 49.7203 48.3368 49.2332 47.9783C48.9243 47.7507 48.5654 47.6294 48.2056 47.5135C47.629 47.3281 47.0393 47.1813 46.4663 46.9845C45.838 46.7683 45.2307 46.5083 44.6971 46.1014C43.9231 45.5118 43.5107 44.7263 43.4107 43.7633C43.3405 43.092 43.4036 42.4374 43.6529 41.8091C43.9758 40.9955 44.5401 40.3857 45.2842 39.9384C45.9696 39.5272 46.7173 39.3049 47.5062 39.2047C47.8221 39.1652 48.1372 39.1502 48.4531 39.152Z" fill="white"/>
<path d="M38.7921 45.8147V39.9908C38.7921 39.9539 38.7921 39.9161 38.7921 39.8792C38.793 39.5471 38.8298 39.4926 39.1598 39.4443C39.3792 39.4126 39.6038 39.3986 39.8258 39.3977C40.4138 39.3942 41.0026 39.3705 41.5897 39.4258C41.7073 39.4364 41.8223 39.4557 41.9355 39.49C42.0636 39.5286 42.1329 39.6121 42.1338 39.7483C42.1338 39.7975 42.1347 39.8476 42.1347 39.8968C42.1347 43.8473 42.1347 47.7978 42.1347 51.7483C42.1347 52.0893 42.0768 52.1517 41.7389 52.2035C41.5116 52.2386 41.2826 52.2448 41.0535 52.2474C40.4287 52.2553 39.803 52.2764 39.18 52.2044C39.1554 52.2017 39.1308 52.2009 39.1063 52.1965C38.8535 52.1508 38.7938 52.0831 38.793 51.8239C38.7912 50.8934 38.7921 49.9638 38.7921 49.0332V45.8147Z" fill="white"/>
<path d="M40.4112 38.0209C39.2291 38.0201 38.263 37.0553 38.2709 35.8849C38.2788 34.6925 39.2397 33.7304 40.4279 33.7418C41.7284 33.7541 42.5875 34.8322 42.5665 35.9209C42.5454 37.0658 41.5871 38.0455 40.4112 38.0209Z" fill="#8CC63F"/>
<path d="M33.1398 45.7015C33.1398 46.3588 33.1433 47.016 33.138 47.6733C33.1363 47.9079 33.1275 48.1434 33.0871 48.3762C33.0204 48.7681 32.8212 49.0625 32.4755 49.2602C32.1315 49.457 31.7603 49.5686 31.3698 49.616C30.8845 49.6749 30.4062 49.6389 29.9429 49.4702C29.419 49.2804 29.0627 48.9105 28.8108 48.4254C28.5914 48.0028 28.4668 47.5503 28.4019 47.0819C28.2773 46.1848 28.3054 45.2903 28.4721 44.4002C28.5397 44.04 28.6459 43.6911 28.8073 43.3607C29.247 42.4619 29.9718 42.0252 30.9652 42.0313C31.8445 42.0375 32.5255 42.4452 33.0863 43.0928C33.1424 43.1578 33.1389 43.2272 33.1389 43.301C33.1389 43.8651 33.1389 44.4292 33.1389 44.9933V45.7015H33.1398Z" fill="#6B2976"/>
</g>
<g clip-path="url(#clip1_1_4899)">
<path d="M77.4196 9.92725C81.021 9.92725 83.7888 10.8909 83.7888 14.7347C83.7888 17.1866 82.5919 18.782 80.337 19.6386L81.4698 21.8335C82.314 23.5252 83.1369 24.9171 84.2911 26.5232C84.4086 26.7159 84.0346 26.898 83.3506 26.898H82.9018C82.1751 26.898 81.8011 26.6624 81.6515 26.4483C80.7324 25.1527 80.2622 24.1677 79.5355 22.7543L78.1035 19.9491H75.6777V26.641C75.6777 26.8337 75.325 26.898 74.7159 26.898H74.4594C73.7968 26.898 73.4442 26.823 73.4442 26.641V9.93795H77.4196V9.92725ZM75.6777 18.1396H77.815C80.4439 18.1396 81.4805 16.7262 81.4805 14.799C81.4805 11.9937 79.2897 11.7367 77.7615 11.7367H75.667V18.1396H75.6777Z" fill="white"/>
<path d="M87.9994 21.4158C88.0742 22.7114 88.4482 23.7285 89.1749 24.3389C89.8054 24.9063 90.7245 25.1847 91.9534 25.1847C92.9366 25.1847 93.9304 24.9492 95.0525 24.4352C95.2663 24.3389 95.4052 24.296 95.6403 24.8849L95.7578 25.1633C96.0143 25.7736 95.993 25.9128 95.8006 26.0306C94.6037 26.7372 93.1183 27.112 91.5473 27.112C87.7429 27.112 85.7872 24.735 85.7872 20.9447C85.7872 16.9831 87.9459 14.21 91.4298 14.21C93.5243 14.21 94.9564 15.2485 95.7365 16.8011C96.2815 17.8825 96.5166 19.178 96.5166 20.57C96.5166 21.2766 96.4739 21.4158 96.2815 21.4158H87.9994ZM94.3472 19.6706C94.3258 17.9039 93.4282 16.1372 91.4511 16.1372C89.7306 16.1372 88.3948 17.2401 88.0635 19.6706H94.3472Z" fill="white"/>
<path d="M108.047 14.4455C108.796 14.4455 108.967 14.5205 108.988 14.756C109.084 15.9124 109.127 19.2316 109.127 20.6021V24.5102C109.127 26.5659 109.009 27.8508 108.678 28.9429C107.994 31.1807 105.857 32.4013 103.484 32.4013C102.309 32.4013 100.684 32.1229 99.9363 31.6732C99.7974 31.5982 99.776 31.3948 99.9577 30.8487L100.054 30.5704C100.246 30.0029 100.332 29.9065 100.449 29.9065C100.567 29.9065 100.823 30.0243 101.016 30.0993C101.7 30.3348 102.384 30.4954 103.249 30.4954C105.248 30.4954 106.498 29.6496 106.872 27.8079C106.989 27.1976 107.011 26.1805 107.011 25.5487C106.167 26.4696 104.777 26.8871 103.58 26.8871C100.193 26.8871 98.5684 24.2746 98.5684 20.8055C98.5898 16.7261 100.898 14.21 103.933 14.21C105.269 14.21 106.423 14.7774 106.989 15.7197H107.011V14.756C107.011 14.5419 107.171 14.4455 107.973 14.4455H108.047ZM107.011 20.1952C107.011 18.6213 106.936 18.0003 106.658 17.4649C106.284 16.7368 105.461 16.1908 104.115 16.1908C102.074 16.1908 100.781 17.9789 100.781 20.7092C100.781 23.4395 101.839 24.9706 103.997 24.9706C105.173 24.9706 106.37 24.3817 107.011 23.5786V20.1952Z" fill="white"/>
<path d="M113.626 9.14551C114.449 9.14551 115.111 9.80935 115.111 10.6338C115.111 11.4582 114.449 12.1221 113.626 12.1221C112.803 12.1221 112.14 11.4582 112.14 10.6338C112.14 9.80935 112.792 9.14551 113.626 9.14551ZM113.711 14.4455C114.652 14.4455 114.673 14.5633 114.673 14.7239V26.598C114.673 26.7586 114.652 26.8764 113.711 26.8764H113.572C112.632 26.8764 112.557 26.7801 112.557 26.598V14.7239C112.557 14.5312 112.632 14.4455 113.572 14.4455H113.711Z" fill="white"/>
<path d="M125.541 16.5869C125.114 17.1972 124.996 17.1972 124.836 17.058C123.97 16.4477 123.148 16.0195 122.111 16.0195C121.149 16.0195 119.76 16.3942 119.76 17.6898C119.76 18.9639 121.074 19.2958 122.207 19.5742C124.131 20.0667 126.183 20.7734 126.183 23.2253C126.183 25.7415 124.067 27.112 121.481 27.112C119.974 27.112 118.52 26.5659 117.623 25.9342C117.388 25.7736 117.462 25.6237 117.719 25.0883L117.826 24.8314C118.136 24.1675 118.221 24.1461 118.531 24.3389C119.429 24.8528 120.551 25.2811 121.587 25.2811C122.667 25.2811 124.174 24.735 124.174 23.3752C124.174 22.1011 122.667 21.6835 121.47 21.4158C120.219 21.1374 119.311 20.8055 118.67 20.2166C118.082 19.6706 117.73 18.8461 117.73 17.936C117.73 15.6233 119.728 14.21 122.079 14.21C123.564 14.21 124.922 14.7239 125.798 15.5055C125.99 15.6661 126.033 15.8803 125.702 16.3514L125.541 16.5869Z" fill="white"/>
<path d="M130.639 10.9551C131.579 10.9551 131.601 11.0729 131.601 11.2335V14.4349H134.561C134.721 14.4349 134.775 14.5527 134.775 15.163V15.3557C134.775 15.9874 134.732 16.1052 134.561 16.1052H131.601V23.0541C131.601 23.9535 131.676 24.5423 131.975 24.8636C132.231 25.1419 132.637 25.2918 133.172 25.2918C133.717 25.2918 134.304 25.1312 134.775 24.9813C135.01 24.9064 135.085 25.0028 135.202 25.4524L135.277 25.763C135.395 26.2555 135.395 26.3947 135.202 26.5124C134.614 26.8872 133.599 27.1013 132.734 27.1013C131.676 27.1013 130.895 26.823 130.382 26.3197C129.699 25.688 129.485 24.7886 129.485 23.2147V16.0945H127.999C127.839 16.0945 127.786 15.9767 127.786 15.345V15.1522C127.786 14.5419 127.828 14.4242 127.999 14.4242H129.485V11.2442C129.485 11.0514 129.56 10.9658 130.5 10.9658H130.639V10.9551Z" fill="white"/>
<path d="M139.039 21.4158C139.113 22.7114 139.487 23.7285 140.214 24.3389C140.845 24.9063 141.764 25.1847 142.993 25.1847C143.976 25.1847 144.97 24.9492 146.092 24.4352C146.306 24.3389 146.444 24.296 146.68 24.8849L146.797 25.1633C147.054 25.7736 147.032 25.9128 146.84 26.0306C145.643 26.7372 144.157 27.112 142.587 27.112C138.771 27.112 136.826 24.735 136.826 20.9447C136.826 16.9831 138.985 14.21 142.469 14.21C144.564 14.21 145.996 15.2485 146.776 16.8011C147.321 17.8825 147.556 19.178 147.556 20.57C147.556 21.2766 147.513 21.4158 147.321 21.4158H139.039ZM145.386 19.6706C145.365 17.9039 144.467 16.1372 142.49 16.1372C140.77 16.1372 139.434 17.2401 139.103 19.6706H145.386Z" fill="white"/>
<path d="M151.403 14.4453C152.247 14.4453 152.365 14.5203 152.365 14.7237L152.408 17.1542C153.305 15.1734 154.598 14.3062 155.838 14.3062C156.052 14.3062 156.212 14.3276 156.33 14.349C156.543 14.3918 156.565 14.4668 156.565 15.0128V15.3662C156.565 16.0514 156.543 16.2334 156.308 16.2334C154.641 16.2334 153.797 17.272 153.113 18.3748C152.782 18.9209 152.6 19.574 152.547 20.3985C152.504 21.0623 152.472 22.5185 152.472 23.889V26.5979C152.472 26.7585 152.45 26.8763 151.51 26.8763H151.382C150.441 26.8763 150.366 26.7799 150.366 26.5979V18.5676C150.366 16.9615 150.324 15.3126 150.324 14.7237C150.324 14.531 150.399 14.4453 151.286 14.4453H151.403Z" fill="white"/>
<path d="M159.888 21.4158C159.963 22.7114 160.337 23.7285 161.064 24.3389C161.694 24.9063 162.613 25.1847 163.842 25.1847C164.825 25.1847 165.819 24.9492 166.941 24.4352C167.155 24.3389 167.294 24.296 167.529 24.8849L167.647 25.1633C167.903 25.7736 167.882 25.9128 167.689 26.0306C166.493 26.7372 165.007 27.112 163.436 27.112C159.632 27.112 157.676 24.735 157.676 20.9447C157.676 16.9831 159.835 14.21 163.319 14.21C165.413 14.21 166.845 15.2485 167.625 16.8011C168.17 17.8825 168.405 19.178 168.405 20.57C168.405 21.2766 168.363 21.4158 168.17 21.4158H159.888ZM166.236 19.6706C166.215 17.9039 165.317 16.1372 163.34 16.1372C161.619 16.1372 160.284 17.2401 159.952 19.6706H166.236Z" fill="white"/>
<path d="M179.99 8.98486C180.738 8.98486 180.952 9.05981 180.952 9.29537V23.9533C180.952 25.1311 181.144 25.2275 181.774 25.2275C181.913 25.2275 181.988 25.3667 181.988 25.8592V26.0198C181.988 26.5873 181.913 26.7479 181.774 26.8014C181.443 26.9192 181.144 26.9406 180.738 26.9406C180.032 26.9406 179.402 26.4909 179.113 25.5701H179.092C178.504 26.3731 177.19 27.1226 175.491 27.1226C172.381 27.1226 170.457 24.7885 170.457 20.9232C170.457 17.3899 172.295 14.2099 176.175 14.2099C177.136 14.2099 178.248 14.5847 178.836 14.9915V9.29537C178.836 9.05981 179.049 8.98486 179.851 8.98486H179.99ZM178.836 17.0152C178.248 16.5226 177.233 16.1479 176.292 16.1479C174.08 16.1479 172.669 18.0109 172.669 20.859C172.669 23.7606 174.08 25.2382 175.918 25.2382C176.72 25.2382 177.607 24.9812 178.152 24.4352C178.697 23.8891 178.836 23.1182 178.836 21.1374V17.0152Z" fill="white"/>
<path d="M74.3739 37.7651C75.3571 37.7651 75.5281 37.8401 75.667 38.0756L83.5003 51.1276V38.0221C83.5003 37.8294 83.8102 37.7651 84.398 37.7651H84.5903C85.2208 37.7651 85.5307 37.8401 85.5307 38.0221V54.4682C85.5307 54.6823 85.2956 54.7251 84.43 54.7251H84.3552C83.372 54.7251 83.2011 54.6502 83.0621 54.4146L75.1861 41.3841V54.4575C75.1861 54.6502 74.8762 54.7144 74.2884 54.7144H74.0961C73.4656 54.7144 73.1556 54.6395 73.1556 54.4575V38.0221C73.1556 37.808 73.3908 37.7651 74.2564 37.7651H74.3739Z" fill="white"/>
<path d="M93.1396 37.7651C96.2387 37.7651 98.1196 38.3326 99.5623 39.8423C100.855 41.1807 101.635 43.2364 101.635 46.1595C101.635 49.0611 100.855 51.4381 99.231 52.9906C97.8203 54.329 95.8433 54.7358 93.2571 54.7358H89.1855V37.7651H93.1396ZM91.419 52.8835H93.2999C94.9243 52.8835 96.4738 52.5516 97.5318 51.5666C98.7073 50.4637 99.3165 48.6007 99.3165 46.213C99.3165 44.0502 98.8249 42.4227 97.9806 41.3841C97.083 40.2492 95.6723 39.596 93.4388 39.596H91.419V52.8835Z" fill="white"/>
<path d="M109.992 37.7656C110.131 37.7656 110.185 37.9797 110.185 38.4294V38.7078C110.185 39.1789 110.142 39.3931 109.992 39.3931H108.272V53.1088H109.992C110.131 53.1088 110.185 53.323 110.185 53.7941V54.0725C110.185 54.5222 110.142 54.7363 109.992 54.7363H104.328C104.19 54.7363 104.136 54.6399 104.136 54.051V53.7941C104.136 53.2052 104.179 53.1088 104.328 53.1088H106.049V39.3824H104.328C104.19 39.3824 104.136 39.286 104.136 38.6971V38.4401C104.136 37.8512 104.179 37.7549 104.328 37.7549H109.992V37.7656Z" fill="white"/>
<path d="M121.897 39.7676C121.641 40.2387 121.384 40.3351 121.235 40.2387C120.487 39.7462 119.493 39.4143 118.296 39.4143C116.298 39.4143 115.432 40.667 115.432 41.909C115.432 45.346 122.955 44.8106 122.955 50.1106C122.955 52.9801 121.096 54.9609 117.548 54.9609C115.592 54.9609 113.829 54.4149 112.803 53.6225C112.643 53.4834 112.664 53.1514 112.942 52.6589L113.102 52.3805C113.337 52.0058 113.615 51.8345 113.765 51.9308C114.823 52.6589 116.276 53.0872 117.291 53.0872C119.215 53.0872 120.754 52.145 120.754 50.3997C120.754 46.3524 113.252 47.2411 113.252 42.2302C113.252 39.2644 115.485 37.5405 118.146 37.5405C119.514 37.5405 121.224 37.9688 122.164 38.7397C122.303 38.8575 122.207 39.2108 122.026 39.5642L121.897 39.7676Z" fill="white"/>
<path d="M135.576 37.7651C139.146 37.7651 141.903 38.868 141.903 42.8724C141.903 45.3243 140.652 48.3651 136.282 48.3651C135.48 48.3651 134.614 48.3223 133.834 48.2259V54.4682C133.834 54.6609 133.482 54.7251 132.872 54.7251H132.616C131.953 54.7251 131.601 54.6502 131.601 54.4682V37.7651H135.576ZM133.834 46.4057C134.561 46.5021 135.362 46.5449 136.111 46.5449C138.536 46.5449 139.594 45.0567 139.594 42.9367C139.594 39.8744 137.404 39.596 135.854 39.596H133.834V46.4057Z" fill="white"/>
<path d="M144.884 42.2842C145.728 42.2842 145.846 42.3592 145.846 42.5626L145.889 44.9931C146.786 43.0123 148.08 42.145 149.319 42.145C149.533 42.145 149.693 42.1664 149.811 42.1878C150.024 42.2307 150.046 42.3056 150.046 42.8517V43.205C150.046 43.8903 150.024 44.0723 149.789 44.0723C148.122 44.0723 147.278 45.1109 146.594 46.2137C146.263 46.7598 146.081 47.4129 146.028 48.2373C145.985 48.9012 145.953 50.3573 145.953 51.7278V54.4367C145.953 54.5973 145.932 54.7151 144.991 54.7151H144.852C143.912 54.7151 143.837 54.6188 143.837 54.4367V46.4064C143.837 44.8004 143.794 43.1515 143.794 42.5626C143.794 42.3699 143.869 42.2842 144.756 42.2842H144.884Z" fill="white"/>
<path d="M160.551 43.2261C161.726 44.2647 162.41 46.0099 162.41 48.2156C162.41 52.6697 160.081 54.9503 156.554 54.9503C155.122 54.9503 153.925 54.5756 153.027 53.7725C151.852 52.734 151.168 50.9887 151.168 48.7723C151.168 44.3182 153.498 42.0376 157.024 42.0376C158.456 42.0483 159.653 42.4231 160.551 43.2261ZM153.369 48.6224C153.369 50.7424 154.075 53.0766 156.64 53.0766C158.52 53.0766 160.187 51.7596 160.187 48.3869C160.187 46.2669 159.482 43.9327 156.917 43.9327C155.047 43.9327 153.369 45.2497 153.369 48.6224Z" fill="white"/>
<path d="M169.271 52.3167H169.292C170.447 49.1795 171.569 45.8389 172.306 42.5197C172.349 42.327 172.381 42.2842 173.289 42.2842C174.23 42.2842 174.422 42.3056 174.326 42.7339C173.225 47.2308 171.697 51.4708 170.35 54.4474C170.233 54.7044 170.041 54.7258 169.1 54.7258C168.181 54.7258 167.999 54.683 167.903 54.4474L163.596 42.6161C163.5 42.3377 163.757 42.2842 164.633 42.2842C165.477 42.2842 165.809 42.3591 165.883 42.5412L169.271 52.3167Z" fill="white"/>
<path d="M177.681 36.9839C178.504 36.9839 179.167 37.6477 179.167 38.4722C179.167 39.2966 178.504 39.9605 177.681 39.9605C176.859 39.9605 176.196 39.2966 176.196 38.4722C176.196 37.6477 176.859 36.9839 177.681 36.9839ZM177.778 42.2839C178.718 42.2839 178.739 42.4017 178.739 42.5623V54.4364C178.739 54.597 178.718 54.7148 177.778 54.7148H177.639C176.698 54.7148 176.623 54.6184 176.623 54.4364V42.5623C176.623 42.3695 176.698 42.2839 177.639 42.2839H177.778Z" fill="white"/>
<path d="M191.082 36.8232C191.831 36.8232 192.044 36.8982 192.044 37.1337V51.7917C192.044 52.9695 192.237 53.0659 192.867 53.0659C193.006 53.0659 193.081 53.2051 193.081 53.6976V53.8582C193.081 54.4257 193.006 54.5863 192.867 54.6398C192.536 54.7576 192.237 54.779 191.831 54.779C191.125 54.779 190.495 54.3293 190.206 53.4085H190.185C189.597 54.2115 188.283 54.961 186.583 54.961C183.474 54.961 181.55 52.6269 181.55 48.7616C181.55 45.2283 183.388 42.0483 187.267 42.0483C188.229 42.0483 189.341 42.423 189.928 42.8299V37.1337C189.928 36.8982 190.142 36.8232 190.944 36.8232H191.082ZM189.939 44.8535C189.351 44.361 188.336 43.9863 187.396 43.9863C185.183 43.9863 183.773 45.8493 183.773 48.6974C183.773 51.599 185.183 53.0766 187.022 53.0766C187.823 53.0766 188.71 52.8196 189.255 52.2735C189.8 51.7275 189.939 50.9566 189.939 48.9758V44.8535Z" fill="white"/>
<path d="M197.409 49.2542C197.484 50.5498 197.858 51.5669 198.584 52.1772C199.215 52.7447 200.134 53.0231 201.363 53.0231C202.346 53.0231 203.34 52.7875 204.462 52.2736C204.676 52.1772 204.815 52.1344 205.05 52.7233L205.167 53.0017C205.424 53.612 205.403 53.7512 205.21 53.8689C204.013 54.5756 202.528 54.9504 200.957 54.9504C197.152 54.9504 195.197 52.5734 195.197 48.7831C195.197 44.8215 197.355 42.0483 200.839 42.0483C202.934 42.0483 204.366 43.0869 205.146 44.6395C205.691 45.7209 205.926 47.0164 205.926 48.4083C205.926 49.115 205.883 49.2542 205.691 49.2542H197.409ZM203.757 47.5089C203.735 45.7423 202.838 43.9756 200.861 43.9756C199.14 43.9756 197.804 45.0784 197.473 47.5089H203.757Z" fill="white"/>
<path d="M209.773 42.2842C210.618 42.2842 210.735 42.3592 210.735 42.5626L210.778 44.9931C211.676 43.0123 212.969 42.145 214.208 42.145C214.422 42.145 214.582 42.1664 214.7 42.1878C214.914 42.2307 214.935 42.3056 214.935 42.8517V43.205C214.935 43.8903 214.914 44.0723 214.679 44.0723C213.011 44.0723 212.167 45.1109 211.483 46.2137C211.152 46.7598 210.97 47.4129 210.917 48.2373C210.874 48.9012 210.842 50.3573 210.842 51.7278V54.4367C210.842 54.5973 210.821 54.7151 209.88 54.7151H209.741C208.801 54.7151 208.726 54.6188 208.726 54.4367V46.4064C208.726 44.8004 208.683 43.1515 208.683 42.5626C208.683 42.3699 208.758 42.2842 209.645 42.2842H209.773Z" fill="white"/>
</g>
<defs>
<clipPath id="clip0_1_4899">
<rect width="63.9594" height="64" fill="white"/>
</clipPath>
<clipPath id="clip1_1_4899">
<rect width="142.132" height="46.2222" fill="white" transform="translate(72.9419 8.88867)"/>
</clipPath>
</defs>
</svg>
